<svg xmlns="http://www.w3.org/2000/svg" version="1.1" xmlns:xlink="http://www.w3.org/1999/xlink" xmlns:svgjs="http://svgjs.com/svgjs" width="80" height="80"><svg xmlns="http://www.w3.org/2000/svg" xml:space="preserve" width="80" height="80" style="enable-background:new 0 0 80 80">
  <path d="M52.5 39.2c-1.6 1.1-4.2 1.7-5.9 1.4 3.5-.9 4.9-2.5 5-3-.4-1.2-1.4-3.3-2.1-4.8-.7-1.3-.2-4.5.5-5.9 4-3.8 1.8-6.1 2.8-7 1.4-1.8 6.3-5.2 6.1-6.1-2.6-5-9.4-5.8-9.4-5.8s-1.6 3.1-2.1 7c-3.3.3-6 2.8-6.7 4.9-.1.3-.5.1-.6.3-.1-.1-.5 0-.6-.3-.7-2.1-3.4-4.6-6.7-4.9-.6-3.9-2.1-7-2.1-7s-6.8.8-9.4 5.8c-.2.9 4.7 4.3 6.1 6.1 1 .9-1.2 3.2 2.8 7 .7 1.4 1.2 4.6.5 5.9-.8 1.4-1.8 3.6-2.1 4.8.1.5 1.5 2.1 5 3-1.7.3-4.3-.3-5.9-1.4-3 2.6-13.6 10.4-14 16.5 1.3 2.1 1.5 4.1 3.8 5.6 1.6.8.4 3.2 2.9 4.9 3.3 2.3 8 .6 9.4 2 2.5 2.5 7.2 3.7 10.5 3.7s7.9-1.1 10.5-3.7c1.3-1.3 6.1.4 9.4-2 2.4-1.7 1.2-4.2 2.9-4.9 2.3-1.5 2.5-3.5 3.8-5.6-.9-6.1-11.4-13.9-14.4-16.5z" style="fill:#1c2b36"></path>
</svg><style>@media (prefers-color-scheme: light) { :root { filter: none; } }
@media (prefers-color-scheme: dark) { :root { filter: invert(100%); } }
</style></svg>